<?xml version="1.0" encoding="UTF-8" ?>
<!DOCTYPE svg PUBLIC "-//W3C//DTD SVG 1.1//EN" "http://www.w3.org/Graphics/SVG/1.1/DTD/svg11.dtd">
<svg width="2200pt" height="397pt" viewBox="0 0 2200 397" version="1.1" xmlns="http://www.w3.org/2000/svg">
<g id="#283094ff">
<path fill="#283094" opacity="1.00" d=" M 1353.64 1.69 C 1375.83 1.62 1398.02 1.53 1420.20 1.73 C 1420.35 132.00 1420.22 262.26 1420.27 392.53 C 1398.76 392.82 1377.23 392.79 1355.72 392.54 C 1355.57 381.32 1356.04 370.08 1355.49 358.86 C 1350.96 362.54 1347.26 367.10 1342.76 370.80 C 1321.86 388.41 1294.21 395.78 1267.35 397.00 L 1257.67 397.00 C 1241.39 396.14 1225.10 393.55 1209.69 388.09 C 1194.80 382.55 1180.58 374.88 1168.42 364.59 C 1153.41 352.26 1141.77 336.16 1133.51 318.66 C 1123.53 297.24 1119.73 273.43 1119.56 249.96 C 1120.26 234.94 1121.75 219.83 1126.18 205.39 C 1136.18 170.44 1160.91 139.75 1193.66 123.68 C 1211.87 114.27 1232.17 109.34 1252.59 108.30 C 1259.40 107.42 1266.30 107.42 1273.11 108.31 C 1296.28 109.65 1319.42 116.87 1338.07 130.94 C 1343.58 134.86 1347.90 140.15 1353.36 144.14 C 1353.85 96.66 1353.28 49.17 1353.64 1.69 M 1262.47 164.69 C 1241.77 166.55 1221.43 175.91 1207.93 191.94 C 1194.06 208.02 1186.75 229.36 1187.23 250.54 C 1186.38 271.26 1192.26 292.45 1205.11 308.89 C 1217.06 324.81 1235.57 335.36 1255.12 338.55 C 1276.15 341.86 1298.83 338.75 1316.82 326.85 C 1329.94 318.72 1339.95 306.21 1346.51 292.36 C 1355.37 272.18 1356.64 249.04 1351.79 227.68 C 1346.93 207.07 1334.30 187.92 1316.01 176.90 C 1300.24 166.79 1280.96 163.25 1262.47 164.69 Z" />
<path fill="#283094" opacity="1.00" d=" M 1662.75 1.72 C 1684.93 1.55 1707.12 1.60 1729.31 1.70 C 1729.51 131.99 1729.35 262.29 1729.39 392.59 C 1708.05 392.81 1686.71 392.69 1665.37 392.65 C 1665.18 381.31 1665.57 369.96 1665.19 358.62 C 1661.86 361.11 1658.92 364.07 1656.04 367.04 C 1650.72 372.58 1644.25 376.83 1637.70 380.75 C 1619.41 391.32 1598.24 395.82 1577.33 397.00 L 1566.69 397.00 C 1559.07 396.44 1551.44 395.92 1543.93 394.50 C 1522.04 390.93 1500.95 382.20 1483.18 368.91 C 1452.67 346.51 1434.16 310.15 1430.15 272.87 C 1429.39 262.51 1427.73 252.08 1429.34 241.71 C 1430.67 212.27 1440.50 182.96 1458.78 159.68 C 1480.84 131.11 1515.31 113.39 1550.92 109.26 C 1561.27 108.25 1571.73 106.84 1582.12 108.30 C 1605.04 109.66 1628.01 116.60 1646.57 130.42 C 1652.32 134.45 1657.00 139.76 1662.45 144.18 C 1662.97 125.79 1662.53 107.39 1662.68 89.00 C 1662.73 59.91 1662.57 30.81 1662.75 1.72 M 1571.48 164.72 C 1551.27 166.58 1531.40 175.53 1518.01 191.02 C 1502.67 207.98 1495.40 231.33 1496.40 254.00 C 1495.84 282.68 1509.90 312.09 1534.66 327.30 C 1552.09 338.50 1573.76 341.66 1594.04 338.79 C 1616.20 335.72 1637.12 323.02 1649.13 304.00 C 1658.99 289.59 1663.54 271.98 1663.68 254.63 C 1663.69 246.39 1663.76 238.07 1661.61 230.05 C 1657.17 208.71 1644.46 188.84 1625.85 177.19 C 1609.85 166.92 1590.28 163.15 1571.48 164.72 Z" />
<path fill="#283094" opacity="1.00" d=" M 141.26 1.80 C 145.34 1.12 149.52 3.83 151.87 7.07 C 188.37 58.56 223.61 111.04 254.97 165.85 C 259.15 173.40 263.24 181.00 267.58 188.46 C 277.15 206.39 282.69 226.39 283.89 246.67 C 285.24 255.47 283.98 264.34 282.86 273.09 C 279.25 302.58 265.48 330.55 244.92 351.93 C 224.45 373.24 197.22 388.09 168.07 393.22 C 154.82 395.50 141.22 396.65 127.86 394.63 C 95.99 391.53 65.34 376.96 42.88 354.12 C 16.25 328.20 0.97 291.14 1.32 254.00 C 1.44 232.90 6.24 211.71 15.67 192.79 C 25.35 174.24 34.86 155.58 45.64 137.63 C 71.00 94.50 99.47 53.28 129.09 12.99 C 132.45 8.63 135.39 3.05 141.26 1.80 Z" />
<path fill="#283094" opacity="1.00" d=" M 1873.80 108.26 C 1884.51 106.83 1895.31 108.27 1905.99 109.37 C 1934.15 112.84 1961.46 124.46 1982.79 143.29 C 1998.21 157.22 2010.27 174.83 2017.72 194.22 C 2024.23 211.67 2026.96 230.38 2027.18 248.93 C 2009.57 253.01 1991.73 256.03 1974.01 259.60 C 1930.21 268.22 1886.36 276.62 1842.55 285.20 C 1832.06 287.33 1821.48 289.05 1811.06 291.49 C 1819.37 312.25 1837.77 328.15 1858.95 334.84 C 1880.19 341.58 1903.32 342.17 1924.97 336.97 C 1942.94 332.66 1959.31 322.85 1972.45 309.96 C 1978.21 314.41 1981.97 320.81 1987.00 326.00 C 1993.98 334.30 2001.42 342.23 2008.00 350.86 C 1998.27 363.31 1985.28 373.02 1971.32 380.27 C 1949.41 391.46 1924.70 395.86 1900.33 397.00 L 1888.70 397.00 C 1871.06 396.16 1853.41 393.69 1836.51 388.44 C 1816.62 382.00 1797.94 371.64 1782.39 357.62 C 1757.92 335.46 1742.77 303.84 1739.39 271.12 C 1736.42 246.21 1739.05 220.48 1748.03 196.99 C 1759.75 166.07 1782.94 139.52 1812.52 124.55 C 1831.39 114.61 1852.55 109.39 1873.80 108.26 M 1820.12 191.11 C 1807.42 207.29 1802.80 228.39 1802.74 248.59 C 1851.14 239.32 1899.56 230.16 1947.93 220.76 C 1952.55 219.83 1957.32 219.50 1961.75 217.76 C 1957.44 201.56 1947.52 186.87 1934.03 176.91 C 1921.71 167.52 1906.40 162.55 1891.05 161.51 C 1883.39 161.64 1875.66 160.93 1868.12 162.56 C 1849.24 165.42 1831.50 175.74 1820.12 191.11 Z" />
<path fill="#283094" opacity="1.00" d=" M 2140.22 118.29 C 2159.06 110.21 2179.75 108.44 2200.00 107.56 L 2200.00 170.86 C 2196.80 170.69 2193.63 170.42 2190.48 169.97 C 2180.92 168.94 2171.30 170.09 2161.92 171.94 C 2144.30 175.61 2127.75 185.53 2117.50 200.50 C 2107.67 214.98 2103.30 232.68 2103.15 250.05 C 2102.12 259.33 2102.56 268.68 2102.49 278.00 C 2102.45 316.19 2102.56 354.39 2102.43 392.58 C 2080.41 392.82 2058.39 392.70 2036.37 392.64 C 2036.21 348.43 2036.35 304.21 2036.31 260.00 C 2036.42 210.27 2036.09 160.54 2036.47 110.81 C 2057.42 110.82 2078.40 110.46 2099.35 111.00 C 2099.71 124.37 2099.30 137.76 2099.54 151.13 C 2109.69 136.65 2123.76 124.92 2140.22 118.29 Z" />
<path fill="#283094" opacity="1.00" d=" M 370.41 111.25 C 373.26 110.93 376.12 110.67 378.99 110.71 C 392.33 110.78 405.66 110.73 418.99 110.75 C 425.05 110.80 431.14 110.44 437.18 111.20 C 437.64 164.08 437.17 216.97 437.41 269.85 C 438.34 286.69 440.55 304.46 450.41 318.68 C 458.84 331.33 474.19 337.74 488.98 338.56 C 496.79 338.59 504.74 339.09 512.37 337.03 C 525.79 334.31 538.12 325.87 544.73 313.76 C 553.10 298.66 555.30 281.02 555.61 264.00 C 555.58 213.11 555.60 162.23 555.59 111.34 C 558.38 110.98 561.17 110.66 564.00 110.71 C 577.33 110.78 590.66 110.73 604.00 110.75 C 610.01 110.81 616.05 110.42 622.03 111.23 C 622.47 116.47 622.32 121.74 622.30 127.00 C 622.33 172.33 622.27 217.66 622.34 263.00 C 622.64 282.15 624.93 302.59 636.39 318.61 C 645.18 330.93 660.14 337.55 674.97 338.53 C 679.32 338.65 683.68 338.61 688.05 338.58 C 702.53 337.96 717.48 332.24 726.35 320.32 C 736.69 306.13 739.36 288.09 740.54 271.00 C 740.69 217.70 740.37 164.39 740.70 111.09 C 748.44 110.40 756.23 110.88 764.00 110.75 C 778.44 110.85 792.89 110.54 807.34 110.91 C 807.64 159.60 807.38 208.30 807.47 257.00 C 807.78 275.77 806.81 294.76 801.91 312.96 C 797.73 329.71 789.87 345.55 778.72 358.74 C 767.18 372.58 751.52 382.62 734.66 388.69 C 719.47 394.04 703.35 396.19 687.34 397.00 L 676.69 397.00 C 656.83 395.82 636.43 392.37 619.05 382.16 C 606.83 375.37 596.69 365.31 588.83 353.82 C 584.97 358.30 581.61 363.21 577.41 367.39 C 563.83 381.31 545.63 390.30 526.60 393.88 C 517.95 395.71 509.14 396.47 500.33 397.00 L 489.68 397.00 C 477.29 396.34 464.89 394.87 452.85 391.81 C 435.20 387.21 418.35 378.57 405.43 365.58 C 390.52 351.28 380.66 332.24 375.76 312.30 C 371.74 296.54 370.37 280.23 370.39 264.01 C 370.38 213.09 370.32 162.17 370.41 111.25 Z" />
<path fill="#283094" opacity="1.00" d=" M 834.51 111.31 C 841.63 110.27 848.84 110.90 856.00 110.75 C 871.10 110.86 886.22 110.52 901.32 110.92 C 901.64 164.22 901.30 217.54 901.48 270.84 C 901.90 277.28 902.73 283.70 904.03 290.03 C 907.16 304.16 914.33 318.02 926.35 326.55 C 938.20 335.40 953.43 338.53 968.00 337.75 C 988.14 338.90 1008.75 331.38 1022.86 316.85 C 1034.04 305.32 1040.30 289.76 1042.61 274.04 C 1044.08 266.74 1043.29 259.25 1044.37 251.91 C 1044.66 204.92 1044.20 157.91 1044.59 110.92 C 1066.55 110.58 1088.52 110.73 1110.49 110.84 C 1110.84 148.89 1110.54 186.95 1110.64 225.00 C 1110.60 280.87 1110.72 336.75 1110.58 392.61 C 1089.55 392.76 1068.53 392.75 1047.51 392.62 C 1047.28 381.08 1047.61 369.54 1047.36 358.00 C 1043.78 361.87 1040.26 365.81 1036.14 369.12 C 1015.30 387.23 987.65 395.86 960.37 397.00 L 951.66 397.00 C 929.05 395.87 905.77 391.83 886.21 379.80 C 871.86 371.35 859.48 359.42 851.22 344.90 C 841.40 327.80 836.72 308.15 835.38 288.59 C 835.37 280.72 834.32 272.90 834.46 265.03 C 834.52 213.79 834.41 162.55 834.51 111.31 Z" />
</g>
</svg>
